<?xml version="1.0" ?>
<!DOCTYPE svg  PUBLIC '-//W3C//DTD SVG 1.1//EN'  'http://www.w3.org/Graphics/SVG/1.1/DTD/svg11.dtd'>
<!-- Uploaded to: SVG Repo, www.svgrepo.com, Generator: SVG Repo Mixer Tools -->
<svg width="800px" height="800px" viewBox="0 0 32 32" enable-background="new 0 0 32 32" version="1.1" xml:space="preserve" xmlns="http://www.w3.org/2000/svg" xmlns:xlink="http://www.w3.org/1999/xlink">
<g id="Layer_2">
<path d="M27.86,29.46L16.94,1.66c-0.1-0.27-0.31-0.49-0.58-0.59c-0.05-0.02-0.11-0.04-0.17-0.05   C16.13,1.01,16.07,1,16,1s-0.13,0.01-0.19,0.02c-0.06,0.01-0.12,0.03-0.17,0.05c-0.25,0.1-0.46,0.3-0.57,0.56l-0.01,0.03   L4.07,29.63C3.92,30,4.01,30.42,4.29,30.7C4.48,30.9,4.74,31,5,31c0.12,0,0.24-0.02,0.36-0.07L16,26.87l10.64,4.06   C26.76,30.98,26.88,31,27,31c0.01,0,0.01,0,0.02,0c0.55,0,1-0.45,1-1C28.02,29.8,27.96,29.62,27.86,29.46z" fill="#2197F3"/>
<g>
<path d="M28.02,30c0,0.55-0.45,1-1,1c-0.01,0-0.01,0-0.02,0c-0.12,0-0.24-0.02-0.36-0.07L16,26.87V1    c0.07,0,0.13,0.01,0.19,0.02c0.06,0.01,0.12,0.03,0.17,0.05c0.27,0.1,0.48,0.32,0.58,0.59l10.92,27.8    C27.96,29.62,28.02,29.8,28.02,30z" fill="#16BCD4"/>
</g>
</g>
<g id="Layer_3"/>
<g id="Layer_4"/>
<g id="Layer_5"/>
<g id="Layer_6"/>
<g id="Layer_7"/>
<g id="Layer_8"/>
<g id="Layer_9"/>
<g id="Layer_10"/>
<g id="Layer_11"/>
<g id="Layer_12"/>
<g id="Layer_13"/>
<g id="Layer_14"/>
<g id="Layer_15"/>
<g id="Layer_16"/>
<g id="Layer_17"/>
<g id="Layer_18"/>
<g id="Layer_19"/>
<g id="Maps_11_"/>
<g id="Maps_10_"/>
<g id="Maps_9_"/>
<g id="Maps_8_"/>
<g id="Maps_7_"/>
<g id="Maps_6_"/>
<g id="Maps_5_"/>
<g id="Maps_4_"/>
<g id="Maps_3_"/>
<g id="Maps_2_"/>
<g id="Maps_1_"/>
<g id="Maps"/>
</svg>